<svg width="71" height="72" viewBox="0 0 71 72" fill="none" xmlns="http://www.w3.org/2000/svg">
<path d="M1.13589 42.1051C2.36992 45.5191 4.20391 49.2229 6.78391 51.3813C12.5054 56.1687 13.7315 57.7414 15.8437 67.3162C17.9558 76.891 27.7641 68.8204 27.7641 68.8204C27.7641 68.8204 30.6931 66.8368 35.603 69.6107C36.9618 70.2672 38.4768 70.5279 39.9758 70.3632C44.0627 70.1577 51.7468 68.4534 58.0079 59.4511C66.9994 46.5254 72.2442 42.6952 70.7461 31.2052C69.2479 19.7153 67.5443 13.7653 54.6023 11.7816C45.7795 10.4302 38.5101 5.73854 34.7721 2.89086C34.5185 2.6968 34.2596 2.51328 33.9955 2.33854C32.4592 1.31374 30.7357 0.605214 28.9247 0.254012C27.1137 -0.0971895 25.2514 -0.0840862 23.4455 0.292564C19.9865 1.06678 16.7762 2.69983 14.1085 5.04221C12.8682 6.09499 11.738 7.27186 10.7352 8.55461C9.02245 10.7441 7.68013 13.2017 6.76205 15.8288C5.47263 19.6214 3.93348 23.3237 2.15478 26.9113C1.18373 28.7584 0.523559 30.754 0.200971 32.8174C-0.254348 35.9433 0.0668137 39.1338 1.13589 42.1051Z" fill="#828A9E"/>
</svg>
